<svg width="161" height="166" viewBox="0 0 161 166" fill="none" xmlns="http://www.w3.org/2000/svg">
<circle cx="80.5" cy="82.5" r="74.5" stroke="#864BE7" stroke-width="2"/>
<path d="M44.34 105.6C41.7 105.6 39.38 105.08 37.38 104.04C35.42 102.96 33.9 101.48 32.82 99.6C31.74 97.72 31.2 95.52 31.2 93H36.6C36.6 95.44 37.28 97.36 38.64 98.76C40.04 100.12 41.96 100.8 44.4 100.8C46.88 100.8 48.8 100.08 50.16 98.64C51.52 97.2 52.2 95.32 52.2 93V89.88C52.2 87.4 51.52 85.48 50.16 84.12C48.8 82.76 46.88 82.08 44.4 82.08H39.9V76.68L50.76 66.12H33V61.2H56.22V66.6L44.52 77.94V77.28C48.52 77.28 51.7 78.42 54.06 80.7C56.42 82.98 57.6 86.04 57.6 89.88V93C57.6 95.52 57.04 97.72 55.92 99.6C54.84 101.48 53.3 102.96 51.3 104.04C49.3 105.08 46.98 105.6 44.34 105.6ZM80.9766 105.6C78.2966 105.6 75.9566 105.08 73.9566 104.04C71.9966 102.96 70.4766 101.46 69.3966 99.54C68.3166 97.58 67.7766 95.3 67.7766 92.7V73.5C67.7766 70.86 68.3166 68.58 69.3966 66.66C70.4766 64.74 71.9966 63.26 73.9566 62.22C75.9566 61.14 78.2966 60.6 80.9766 60.6C83.6966 60.6 86.0366 61.14 87.9966 62.22C89.9566 63.26 91.4766 64.74 92.5566 66.66C93.6366 68.58 94.1766 70.86 94.1766 73.5V92.7C94.1766 95.3 93.6366 97.58 92.5566 99.54C91.4766 101.46 89.9366 102.96 87.9366 104.04C85.9766 105.08 83.6566 105.6 80.9766 105.6ZM80.9766 100.98C83.3766 100.98 85.2966 100.22 86.7366 98.7C88.2166 97.14 88.9566 95.14 88.9566 92.7V73.5C88.9566 71.06 88.2166 69.08 86.7366 67.56C85.2966 66 83.3766 65.22 80.9766 65.22C78.5766 65.22 76.6366 66 75.1566 67.56C73.7166 69.08 72.9966 71.06 72.9966 73.5V92.7C72.9966 95.14 73.7166 97.14 75.1566 98.7C76.6366 100.22 78.5766 100.98 80.9766 100.98ZM80.9766 86.64C79.8966 86.64 79.0166 86.3 78.3366 85.62C77.6966 84.94 77.3766 84.04 77.3766 82.92C77.3766 81.84 77.6966 80.98 78.3366 80.34C79.0166 79.66 79.8966 79.32 80.9766 79.32C82.0566 79.32 82.9166 79.66 83.5566 80.34C84.2366 80.98 84.5766 81.84 84.5766 82.92C84.5766 84.04 84.2366 84.94 83.5566 85.62C82.9166 86.3 82.0566 86.64 80.9766 86.64ZM116.953 105.6C114.273 105.6 111.933 105.08 109.933 104.04C107.973 102.96 106.453 101.46 105.373 99.54C104.293 97.58 103.753 95.3 103.753 92.7V73.5C103.753 70.86 104.293 68.58 105.373 66.66C106.453 64.74 107.973 63.26 109.933 62.22C111.933 61.14 114.273 60.6 116.953 60.6C119.673 60.6 122.013 61.14 123.973 62.22C125.933 63.26 127.453 64.74 128.533 66.66C129.613 68.58 130.153 70.86 130.153 73.5V92.7C130.153 95.3 129.613 97.58 128.533 99.54C127.453 101.46 125.913 102.96 123.913 104.04C121.953 105.08 119.633 105.6 116.953 105.6ZM116.953 100.98C119.353 100.98 121.273 100.22 122.713 98.7C124.193 97.14 124.933 95.14 124.933 92.7V73.5C124.933 71.06 124.193 69.08 122.713 67.56C121.273 66 119.353 65.22 116.953 65.22C114.553 65.22 112.613 66 111.133 67.56C109.693 69.08 108.973 71.06 108.973 73.5V92.7C108.973 95.14 109.693 97.14 111.133 98.7C112.613 100.22 114.553 100.98 116.953 100.98ZM116.953 86.64C115.873 86.64 114.993 86.3 114.313 85.62C113.673 84.94 113.353 84.04 113.353 82.92C113.353 81.84 113.673 80.98 114.313 80.34C114.993 79.66 115.873 79.32 116.953 79.32C118.033 79.32 118.893 79.66 119.533 80.34C120.213 80.98 120.553 81.84 120.553 82.92C120.553 84.04 120.213 84.94 119.533 85.62C118.893 86.3 118.033 86.64 116.953 86.64Z" fill="white"/>
</svg>
